<svg width="36" height="42" viewBox="0 0 36 42" fill="none" xmlns="http://www.w3.org/2000/svg">
<path fill-rule="evenodd" clip-rule="evenodd" d="M7.69708 4.08276C7.69708 3.57184 12.868 0 18.0023 0C23.1366 0 28.3075 3.573 28.3075 4.08276C28.3075 5.90251 28.1174 6.98036 27.9571 7.56711C27.8506 7.95206 27.4968 8.16553 27.1041 8.16553H8.9005C8.50776 8.16553 8.15394 7.95206 8.04746 7.56711C7.88715 6.98036 7.69708 5.90251 7.69708 4.08276ZM16.2848 3.49951C15.9811 3.49951 15.6898 3.62241 15.4751 3.84117C15.2604 4.05994 15.1397 4.35664 15.1397 4.66602C15.1397 4.97539 15.2604 5.2721 15.4751 5.49086C15.6898 5.70962 15.9811 5.83252 16.2848 5.83252H19.7198C20.0235 5.83252 20.3147 5.70962 20.5295 5.49086C20.7442 5.2721 20.8648 4.97539 20.8648 4.66602C20.8648 4.35664 20.7442 4.05994 20.5295 3.84117C20.3147 3.62241 20.0235 3.49951 19.7198 3.49951H16.2848ZM8.88561 15.4189C5.07269 14.2174 6.03451 12.071 7.48869 10.4985H28.8342C29.9976 12.0127 30.6216 14.0552 27.1052 15.2777C27.2489 16.5772 27.123 17.893 26.7355 19.1397C26.348 20.3864 25.7076 21.5363 24.8558 22.5147C24.0041 23.493 22.96 24.2781 21.7913 24.819C20.6226 25.3599 19.3553 25.6445 18.0717 25.6543C16.7881 25.6642 15.5168 25.3991 14.3402 24.8762C13.1636 24.3534 12.108 23.5844 11.2419 22.6192C10.3758 21.6541 9.71843 20.5142 9.31251 19.2736C8.90659 18.0329 8.76115 16.7193 8.88561 15.4177V15.4189ZM17.6908 16.3311C20.716 16.3311 23.061 16.1677 24.8587 15.8831C24.9178 16.8342 24.7856 17.7875 24.4703 18.6847C24.1549 19.5819 23.6631 20.4041 23.0248 21.1007C22.3866 21.7974 21.6154 22.354 20.7585 22.7363C19.9017 23.1187 18.9772 23.3187 18.0418 23.3242C17.1064 23.3297 16.1798 23.1405 15.3187 22.7682C14.4576 22.396 13.6801 21.8485 13.0341 21.1594C12.388 20.4702 11.8869 19.6539 11.5614 18.7605C11.2359 17.867 11.093 16.9153 11.1413 15.9636C12.8165 16.1992 14.9634 16.3311 17.6908 16.3311V16.3311ZM27.6399 33.362C26.6042 31.7158 25.1787 30.3616 23.4945 29.4239C21.8103 28.4862 19.9216 27.9952 18.0023 27.9961C16.0822 27.9948 14.1927 28.4859 12.5078 29.4241C10.823 30.3622 9.39695 31.7173 8.36119 33.3644C7.97679 32.7612 7.38642 32.3248 6.70435 32.1395L4.49216 31.5364C3.75893 31.3362 2.97764 31.4408 2.32014 31.8274C1.66264 32.2139 1.18278 32.8507 0.986099 33.5977L0.0975611 36.9782C0.000247811 37.3481 -0.0245815 37.734 0.0244913 38.1137C0.073564 38.4934 0.195578 38.8596 0.383565 39.1913C0.571551 39.523 0.821828 39.8137 1.1201 40.0468C1.41838 40.2799 1.75881 40.4509 2.12196 40.55L4.333 41.1543C4.70491 41.2563 5.09325 41.2806 5.47462 41.2257C5.85599 41.1708 6.2225 41.0377 6.55206 40.8346C6.55297 41.144 6.67448 41.4404 6.88986 41.6585C7.10523 41.8766 7.39684 41.9986 7.70052 41.9977C8.00419 41.9967 8.29507 41.8729 8.50916 41.6535C8.72325 41.4341 8.84301 41.137 8.8421 40.8276V39.6611C8.8421 39.2167 8.87302 38.7793 8.93141 38.3512L14.8901 39.9784C15.1667 40.5816 15.6064 41.0918 16.1577 41.4493C16.7089 41.8068 17.3488 41.9967 18.0023 41.9967C18.6557 41.9967 19.2956 41.8068 19.8469 41.4493C20.3981 41.0918 20.8379 40.5816 21.1145 39.9784L27.0732 38.3512C27.1316 38.7793 27.1625 39.2167 27.1625 39.6611V40.8276C27.161 41.137 27.2801 41.4343 27.4938 41.6542C27.7075 41.8741 27.9981 41.9984 28.3018 42C28.6055 42.0015 28.8973 41.8801 29.1131 41.6624C29.3289 41.4448 29.451 41.1487 29.4525 40.8393C30.0937 41.2313 30.8861 41.3677 31.6658 41.1543L33.878 40.5512C34.2412 40.4521 34.5816 40.2811 34.8799 40.048C35.1782 39.8148 35.4284 39.5241 35.6164 39.1924C35.8044 38.8608 35.9264 38.4946 35.9755 38.1149C36.0246 37.7352 35.9997 37.3493 35.9024 36.9794L35.0128 33.5988C34.8161 32.8519 34.3362 32.2151 33.6787 31.8285C33.0212 31.442 32.2399 31.3373 31.5067 31.5376L29.2945 32.1407C28.614 32.3253 28.0246 32.7599 27.6399 33.3609V33.362ZM9.53255 36.0998C10.1511 34.5758 11.1546 33.2458 12.4411 32.245C13.7276 31.2441 15.2513 30.6081 16.8573 30.4014V35.1946C16.3441 35.38 15.8815 35.6868 15.5073 36.0897C15.1331 36.4926 14.858 36.9802 14.7046 37.5124L9.53255 36.101V36.0998ZM26.472 36.0998C25.8534 34.5759 24.8499 33.246 23.5634 32.2451C22.2769 31.2443 20.7533 30.6082 19.1473 30.4014V35.1946C20.1824 35.5679 20.9908 36.4311 21.3 37.5124L26.472 36.101V36.0998ZM18.0023 39.6611C18.306 39.6611 18.5972 39.5382 18.8119 39.3195C19.0267 39.1007 19.1473 38.804 19.1473 38.4946C19.1473 38.1853 19.0267 37.8886 18.8119 37.6698C18.5972 37.451 18.306 37.3281 18.0023 37.3281C17.6986 37.3281 17.4074 37.451 17.1926 37.6698C16.9779 37.8886 16.8573 38.1853 16.8573 38.4946C16.8573 38.804 16.9779 39.1007 17.1926 39.3195C17.4074 39.5382 17.6986 39.6611 18.0023 39.6611Z" fill="#4A4A4A"/>
</svg>
